General
      Complete name : Shi.mian.mai.fu.[House.of.Flying.Daggers].2004.BRRip.H264.AAC.5.1ch.Gopo.mp4
      Format : MPEG-4
      Format profile : Base Media
      Codec ID : isom
      File size : 2.00 GiB
      Duration : 1h 58mn
      Overall bit rate : 2 413 Kbps
      Encoded date : UTC 2009-11-27 23:40:37
      Tagged date : UTC 2009-11-27 23:40:37
   Video #1
      ID : 1
      Format : AVC
      Format/Info : Advanced Video Codec
      Format profile : High@L4.1
      Format settings, CABAC : Yes
      Format settings, ReFrames : 4 frames
      Codec ID : avc1
      Codec ID/Info : Advanced Video Coding
      Duration : 1h 58mn
      Bit rate mode : Variable
      Bit rate : 2 046 Kbps
      Maximum bit rate : 5 712 Kbps
      Width : 1 280 pixels
      Height : 544 pixels
      Display aspect ratio : 2.35:1
      Frame rate mode : Constant
      Frame rate : 23.976 fps
      Resolution : 24 bits
      Colorimetry : 4:2:0
      Scan type : Progressive
      Bits/(Pixel*Frame) : 0.123
      Stream size : 1.70 GiB (85%)
      Writing library : x264 core 68 r1183M f21daff
      Encoding settings : cabac=1 / ref=4 / deblock=1:-1:-1 / analyse=0x3:0x113 / me=umh / subme=8 / psy_rd=1.0:0.0 / mixed_ref=1 / me_range=16 / chroma_me=1 / trellis=2 / 8x8dct=1 / cqm=0 / deadzone=21,11 / chroma_qp_offset=-2 / threads=1 / nr=0 / decimate=1 / mbaff=0 / bframes=3 / b_pyramid=0 / b_adapt=2 / b_bias=0 / direct=3 / wpredb=1 / keyint=250 / keyint_min=25 / scenecut=40 / rc=2pass / bitrate=2046 / ratetol=1.0 / qcomp=0.60 / qpmin=10 / qpmax=51 / qpstep=4 / cplxblur=20.0 / qblur=0.5 / vbv_maxrate=50000 / vbv_bufsize=50000 / ip_ratio=1.40 / pb_ratio=1.30 / aq=1:1.00
      Encoded date : UTC 2009-11-26 11:05:10
      Tagged date : UTC 2009-11-27 23:42:37
   Audio #2
      ID : 2
      Format : AAC
      Format/Info : Advanced Audio Codec
      Format version : Version 4
      Format profile : LC
      Format settings, SBR : No
      Codec ID : 40
      Duration : 1h 58mn
      Bit rate mode : Variable
      Bit rate : 364 Kbps
      Maximum bit rate : 452 Kbps
      Channel(s) : 6 channels
      Channel positions : Front: L C R, Rear: L R, LFE
      Sampling rate : 48.0 KHz
      Resolution : 16 bits
      Stream size : 309 MiB (15%)
      Encoded date : UTC 2009-11-27 23:42:19
      Tagged date : UTC 2009-11-27 23:42:37	
	Sample : YES
	Subtitle : English,Romanian

PLOT

During the reign of the Tang dynasty in China, a secret organization called "The House of the Flying Daggers" rises and opposes the government. A police officer called Leo sends officer Jin to investigate a young dancer named Mei, claiming that she has ties to the "Flying Daggers". Leo arrests Mei, only to have Jin breaking her free in a plot to gain her trust and lead the police to the new leader of the secret organization. But things are far more complicated than they seem... 
Director: Yimou Zhang
CASTING
      
	Takeshi Kaneshiro	... 	Jin
	Andy Lau	... 	Leo
	Ziyi Zhang	... 	Xiao Mei (as Zhang Ziyi)
	Dandan Song	... 	Yee
	Hongfei Zhao	... 	Performer
	Jun Guo	... 	Performer
	Shu Zhang	... 	Performer
	Jiusheng Wang	... 	Performer
	Zhengyong Zhang	... 	Performer
	Yongxin Wang	... 	Performer
	Dong Liu	... 	Performer
	Qi Zi	... 	Performer
	Xuedong Qu	... 	Performer
	Liping Tian	... 	Performer
	Hongwei Zhao	... 	Performer

SOURCE: House.of.Flying.Daggers.2004.1080p.BluRay.DTS.x264.RoSubbed-CzT.mkv

Notes: For best performance I suggest you to use KMPlayer(find it with google) for playback
I haven't tested the movies on a PS3 or Xbox or other devices than PC because I don't own one of them but feel free to test them if you have the oportunity.
